<?xml version="1.0" encoding="UTF-8"?>
<!DOCTYPE svg PUBLIC "-//W3C//DTD SVG 1.1//EN" "http://www.w3.org/Graphics/SVG/1.1/DTD/svg11.dtd">
<svg xmlns="http://www.w3.org/2000/svg" version="1.1" width="800px" height="296px" style="shape-rendering:geometricPrecision; text-rendering:geometricPrecision; image-rendering:optimizeQuality; fill-rule:evenodd; clip-rule:evenodd" xmlns:xlink="http://www.w3.org/1999/xlink">
<g><path style="opacity:0.99" fill="current" d="M 309.5,-0.5 C 320.833,-0.5 332.167,-0.5 343.5,-0.5C 354.462,2.41064 365.129,6.24398 375.5,11C 392.383,22.8824 402.217,39.049 405,59.5C 405.5,69.4944 405.666,79.4944 405.5,89.5C 384.831,89.6666 364.164,89.5 343.5,89C 341.667,88.5 340.5,87.3333 340,85.5C 341.016,74.3663 336.849,65.8663 327.5,60C 323.5,59.3333 319.5,59.3333 315.5,60C 311.701,62.7969 308.201,65.9636 305,69.5C 303.424,75.3877 303.091,81.3877 304,87.5C 305.541,92.9125 307.874,97.9125 311,102.5C 325.034,116.866 338.7,131.532 352,146.5C 370.395,171.1 376.728,198.766 371,229.5C 366.518,248.612 357.018,264.779 342.5,278C 329.103,286.295 314.769,292.128 299.5,295.5C 288.167,295.5 276.833,295.5 265.5,295.5C 259.039,293.382 252.372,291.548 245.5,290C 222.341,279.844 208.507,262.344 204,237.5C 203.333,227.5 203.333,217.5 204,207.5C 204.5,207 205,206.5 205.5,206C 226.831,205.5 248.164,205.333 269.5,205.5C 267.42,216.483 270.086,225.983 277.5,234C 287.908,238.207 295.742,235.374 301,225.5C 301.667,218.167 301.667,210.833 301,203.5C 298.535,197.907 295.535,192.574 292,187.5C 273.01,170.196 256.677,150.863 243,129.5C 230.333,100.833 230.333,72.1667 243,43.5C 258.973,19.2605 281.14,4.59384 309.5,-0.5 Z"/></g>
<g><path style="opacity:0.992" fill="current" d="M -0.5,215.5 C -0.5,198.167 -0.5,180.833 -0.5,163.5C 4.08513,129.81 13.9185,97.8102 29,67.5C 41.657,46.8397 57.8237,29.3397 77.5,15C 101.827,1.91624 127.827,-2.4171 155.5,2C 182.386,8.55306 199.886,25.0531 208,51.5C 211.948,66.6111 213.615,81.9444 213,97.5C 212.5,99.3333 211.333,100.5 209.5,101C 188.833,101.667 168.167,101.667 147.5,101C 145.667,100.5 144.5,99.3333 144,97.5C 145.098,86.707 142.265,77.207 135.5,69C 126.833,64.3333 118.167,64.3333 109.5,69C 102.211,75.2825 96.0443,82.4492 91,90.5C 78.476,113.932 70.1427,138.932 66,165.5C 65.3333,177.5 65.3333,189.5 66,201.5C 67.6387,209.445 70.6387,216.778 75,223.5C 77.4411,225.969 80.2744,227.802 83.5,229C 93.6192,230.935 102.953,229.269 111.5,224C 121.995,214.827 129.328,203.66 133.5,190.5C 127.528,189.67 121.528,189.17 115.5,189C 111.959,188.291 109.959,186.124 109.5,182.5C 113.639,167.678 117.139,152.678 120,137.5C 120.273,135.671 121.107,134.171 122.5,133C 157.44,131.354 192.44,131.02 227.5,132C 230.516,133.529 231.849,136.029 231.5,139.5C 228.292,154.998 224.459,170.331 220,185.5C 213.667,186.833 207.333,188.167 201,189.5C 194.496,213.715 184.162,236.048 170,256.5C 163.5,263 157,269.5 150.5,276C 138.159,284.522 124.492,290.188 109.5,293C 93.5,293.667 77.5,293.667 61.5,293C 53.9139,290.583 46.5806,287.583 39.5,284C 30.6667,276.5 22.5,268.333 15,259.5C 12.3333,254.167 9.66667,248.833 7,243.5C 4.16093,234.136 1.66093,224.802 -0.5,215.5 Z"/></g>
<g><path style="opacity:0.996" fill="current" d="M 487.5,5.5 C 517.5,5.5 547.5,5.5 577.5,5.5C 577.667,99.5006 577.5,193.501 577,287.5C 576.5,289.333 575.333,290.5 573.5,291C 552.833,291.667 532.167,291.667 511.5,291C 509.667,290.5 508.5,289.333 508,287.5C 507.5,276.839 507.333,266.172 507.5,255.5C 486.831,255.333 466.164,255.5 445.5,256C 443.448,256.93 441.948,258.43 441,260.5C 437.592,269.644 433.925,278.644 430,287.5C 428.786,289.049 427.286,290.215 425.5,291C 404.833,291.667 384.167,291.667 363.5,291C 360.783,289.741 359.45,287.574 359.5,284.5C 366.411,265.261 374.578,246.595 384,228.5C 415.947,157.608 447.613,86.6079 479,15.5C 480.698,11.043 483.531,7.70968 487.5,5.5 Z M 513.5,83.5 C 514.814,85.9151 515.481,88.7485 515.5,92C 515.506,96.2358 515.006,100.402 514,104.5C 513.792,134.218 512.959,163.884 511.5,193.5C 497.484,193.833 483.484,193.499 469.5,192.5C 483.415,155.813 498.082,119.48 513.5,83.5 Z"/></g>
<g><path style="opacity:0.981" fill="current" d="M 799.5,73.5 C 799.5,88.1667 799.5,102.833 799.5,117.5C 795.504,134.824 789.67,151.49 782,167.5C 760.836,201.689 730.669,222.855 691.5,231C 671.79,231.179 652.123,231.679 632.5,232.5C 631.167,233.833 631.167,235.167 632.5,236.5C 641.361,240.531 649.861,245.198 658,250.5C 659.405,254.072 659.738,257.739 659,261.5C 656.975,271.176 654.475,280.676 651.5,290C 630.923,291.643 610.256,291.976 589.5,291C 587.765,289.818 586.765,288.151 586.5,286C 587.23,282.206 587.73,278.373 588,274.5C 607.113,193.041 625.779,111.374 644,29.5C 646.135,23.2952 647.801,16.9619 649,10.5C 650.167,9.33333 651.333,8.16667 652.5,7C 677.437,5.36201 702.437,5.02867 727.5,6C 743,8.93988 757.334,14.6065 770.5,23C 775.667,28.1667 780.833,33.3333 786,38.5C 792.193,49.5889 796.693,61.2556 799.5,73.5 Z M 674.5,68.5 C 688.516,68.1674 702.516,68.5008 716.5,69.5C 722.367,74.0286 726.7,79.6953 729.5,86.5C 732.102,108.761 727.436,129.427 715.5,148.5C 711.167,152.833 706.833,157.167 702.5,161.5C 697.833,163.833 693.167,166.167 688.5,168.5C 686.208,167.21 684.208,165.543 682.5,163.5C 688.271,142.748 693.271,121.748 697.5,100.5C 698.833,94.5 698.833,88.5 697.5,82.5C 690.595,78.5484 683.595,74.8818 676.5,71.5C 675.388,70.7348 674.721,69.7348 674.5,68.5 Z"/></g>
</svg>
