<svg id="svg" version="1.1" xmlns="http://www.w3.org/2000/svg" xmlns:xlink="http://www.w3.org/1999/xlink" width="400" height="613.166144200627" viewBox="0, 0, 400,613.166144200627"><g id="svgg"><path id="path0" d="M146.800 1.447 C 140.535 2.024,135.990 2.764,131.200 3.987 C 125.541 5.432,114.331 8.755,112.200 9.618 C 111.760 9.797,110.320 10.308,109.000 10.753 C 103.976 12.450,97.737 14.886,95.600 15.984 C 94.830 16.380,92.310 17.645,90.000 18.796 C 76.401 25.573,62.563 35.412,52.818 45.232 C 34.723 63.469,20.928 83.112,13.936 100.600 C 12.111 105.164,10.291 110.224,9.188 113.800 C 8.509 116.000,7.797 118.160,7.604 118.600 C 7.412 119.040,7.163 119.940,7.052 120.600 C 6.853 121.776,6.724 122.327,5.405 127.600 C 4.702 130.414,4.301 132.577,3.640 137.126 C 3.407 138.735,3.129 140.192,3.022 140.364 C 2.916 140.536,2.722 142.009,2.592 143.638 C 2.461 145.267,2.186 148.130,1.981 150.000 C 0.977 159.121,1.772 177.856,3.628 188.800 C 4.691 195.074,4.696 195.093,7.376 205.000 C 8.508 209.186,12.528 220.918,13.839 223.860 C 14.147 224.554,14.400 225.221,14.400 225.342 C 14.400 225.639,16.322 229.820,19.483 236.400 C 37.105 273.084,75.793 306.285,113.400 316.996 C 114.720 317.372,116.160 317.823,116.600 317.997 C 117.811 318.476,123.189 320.036,125.000 320.433 C 125.880 320.625,127.860 321.075,129.400 321.432 C 135.580 322.865,143.360 323.881,154.138 324.663 C 162.394 325.262,165.984 325.287,187.200 324.892 C 213.324 324.407,212.268 324.315,210.873 326.945 C 209.860 328.855,69.984 468.545,32.639 504.942 C 14.335 522.782,7.012 532.474,4.036 542.800 C 3.750 543.790,3.341 545.045,3.127 545.588 C 2.912 546.132,2.634 548.160,2.509 550.095 C 2.259 553.954,1.954 554.271,1.565 551.075 C 1.426 549.934,1.313 552.330,1.313 556.400 C 1.313 560.470,1.426 562.866,1.565 561.725 C 1.956 558.509,2.256 558.853,2.539 562.845 C 2.682 564.856,2.963 567.154,3.165 567.951 C 3.366 568.748,3.738 570.390,3.991 571.600 C 4.486 573.965,4.800 574.863,6.860 579.800 C 9.459 586.029,14.162 593.443,17.067 595.892 C 17.910 596.603,19.410 597.920,20.400 598.820 C 30.863 608.330,47.199 613.617,60.642 611.844 C 67.312 610.965,74.531 609.168,77.502 607.647 C 77.886 607.451,79.280 606.789,80.600 606.178 C 86.302 603.535,91.925 599.779,97.600 594.823 C 100.383 592.392,369.073 323.573,378.487 313.800 C 387.389 304.560,395.600 292.494,395.600 288.654 C 395.600 288.315,395.761 287.624,395.958 287.119 C 405.552 262.459,389.714 229.705,363.800 220.617 C 362.700 220.231,361.440 219.768,361.000 219.588 C 360.560 219.408,359.750 219.167,359.200 219.054 C 358.650 218.940,356.490 218.488,354.400 218.048 C 347.226 216.537,340.660 216.409,249.263 215.992 C 148.927 215.535,154.288 215.714,144.800 212.508 C 133.370 208.645,120.132 195.371,115.373 183.000 C 114.781 181.460,114.154 179.840,113.981 179.400 C 110.184 169.758,111.126 152.362,116.021 141.704 C 116.450 140.772,116.800 139.911,116.800 139.790 C 116.800 139.200,120.760 132.661,122.640 130.148 C 128.914 121.758,141.055 114.277,152.400 111.809 C 154.050 111.450,156.030 110.952,156.800 110.702 C 157.818 110.372,183.596 110.168,251.200 109.956 C 310.539 109.770,345.286 109.516,347.200 109.256 C 355.479 108.129,357.487 107.706,364.578 105.590 C 366.258 105.089,370.739 103.159,372.400 102.222 C 379.187 98.391,391.394 83.017,394.623 74.233 C 395.195 72.675,395.810 71.040,395.988 70.600 C 396.398 69.586,397.410 65.641,397.970 62.869 C 399.131 57.121,397.927 42.870,395.963 39.105 C 395.763 38.723,395.600 38.178,395.600 37.894 C 395.600 36.130,390.588 26.550,387.171 21.783 C 382.391 15.113,374.581 9.169,366.400 5.974 C 365.190 5.501,363.840 4.967,363.400 4.787 C 362.960 4.607,362.150 4.373,361.600 4.267 C 361.050 4.161,359.070 3.711,357.200 3.267 C 349.143 1.355,354.033 1.439,248.200 1.377 C 193.200 1.345,147.570 1.376,146.800 1.447 M348.500 110.276 C 348.885 110.376,349.515 110.376,349.900 110.276 C 350.285 110.175,349.970 110.093,349.200 110.093 C 348.430 110.093,348.115 110.175,348.500 110.276 M159.111 214.693 C 160.051 214.778,161.491 214.777,162.311 214.691 C 163.130 214.605,162.360 214.536,160.600 214.537 C 158.840 214.539,158.170 214.609,159.111 214.693 " stroke="none" fill="#fbfbfb" fill-rule="evenodd"></path><path id="path1" d="M395.128 445.859 C 391.318 449.182,247.079 593.483,241.053 600.000 C 231.871 609.930,230.848 611.200,232.024 611.200 C 232.257 611.200,232.355 611.050,232.241 610.867 C 232.128 610.683,232.297 610.533,232.618 610.533 C 233.407 610.533,233.355 611.055,232.533 611.370 C 232.129 611.525,232.011 611.770,232.233 611.992 C 232.950 612.707,355.731 612.547,359.200 611.826 C 381.655 607.162,394.805 592.242,398.179 567.600 C 398.834 562.819,399.061 464.583,398.450 450.404 C 398.160 443.675,397.954 443.394,395.128 445.859 M397.900 545.471 C 397.839 553.572,397.790 547.060,397.790 531.000 C 397.790 514.940,397.839 508.312,397.900 516.271 C 397.960 524.229,397.960 537.369,397.900 545.471 M396.916 569.600 C 396.628 570.701,396.400 570.602,396.400 569.376 C 396.400 568.813,396.563 568.454,396.762 568.577 C 396.962 568.700,397.031 569.161,396.916 569.600 M354.200 611.200 C 354.364 611.465,346.326 611.570,330.324 611.512 C 314.229 611.453,309.195 611.349,315.200 611.200 C 332.109 610.781,353.941 610.781,354.200 611.200 " stroke="none" fill="#fb043b" fill-rule="evenodd"></path><path id="path2" d="M397.790 531.000 C 397.790 547.060,397.839 553.572,397.900 545.471 C 397.960 537.369,397.960 524.229,397.900 516.271 C 397.839 508.312,397.790 514.940,397.790 531.000 M396.400 569.376 C 396.400 570.602,396.628 570.701,396.916 569.600 C 397.031 569.161,396.962 568.700,396.762 568.577 C 396.563 568.454,396.400 568.813,396.400 569.376 M315.200 611.200 C 309.195 611.349,314.229 611.453,330.324 611.512 C 346.326 611.570,354.364 611.465,354.200 611.200 C 353.941 610.781,332.109 610.781,315.200 611.200 " stroke="none" fill="#fc0444" fill-rule="evenodd"></path><path id="path3" d="M136.255 0.600 C 136.448 1.102,135.966 1.200,133.292 1.200 C 130.279 1.200,128.689 1.756,129.470 2.537 C 129.792 2.858,129.728 2.867,126.012 3.001 C 123.484 3.093,122.939 3.239,122.464 3.955 C 121.971 4.696,121.515 4.800,118.741 4.800 C 115.759 4.800,115.559 4.855,115.210 5.775 C 114.921 6.533,114.501 6.777,113.320 6.875 C 112.366 6.953,111.837 7.186,111.900 7.500 C 111.968 7.840,111.430 8.000,110.219 8.000 C 108.084 8.000,106.400 8.690,106.401 9.564 C 106.401 10.085,106.002 10.175,104.187 10.062 C 102.023 9.928,100.554 10.478,101.028 11.245 C 101.149 11.440,100.328 11.600,99.205 11.600 C 97.539 11.600,96.990 11.785,96.235 12.600 C 95.719 13.157,94.862 13.600,94.300 13.600 C 93.666 13.600,93.049 13.971,92.637 14.600 C 92.146 15.349,91.633 15.600,90.591 15.600 C 89.621 15.600,89.200 15.782,89.200 16.200 C 89.200 16.570,88.824 16.800,88.219 16.800 C 86.876 16.800,85.200 17.613,85.200 18.264 C 85.200 18.613,84.697 18.800,83.763 18.800 C 82.662 18.800,82.276 18.987,82.116 19.600 C 81.973 20.146,81.570 20.400,80.848 20.400 C 80.186 20.400,79.509 20.774,79.039 21.400 C 78.626 21.950,77.974 22.400,77.591 22.400 C 77.207 22.400,76.806 22.733,76.700 23.139 C 76.583 23.588,75.989 23.982,75.189 24.142 C 74.386 24.303,73.297 25.028,72.397 26.003 C 71.536 26.935,70.557 27.600,70.042 27.600 C 69.558 27.600,68.745 28.050,68.235 28.600 C 67.725 29.150,67.116 29.600,66.881 29.600 C 66.646 29.600,66.340 29.960,66.200 30.400 C 66.035 30.920,65.595 31.200,64.943 31.200 C 64.192 31.200,62.576 32.552,58.490 36.600 C 55.493 39.570,52.896 42.000,52.720 42.000 C 52.544 42.000,52.389 42.225,52.376 42.500 C 52.362 42.775,51.563 43.630,50.600 44.400 C 49.637 45.170,48.838 45.917,48.824 46.059 C 48.802 46.301,34.762 60.383,33.414 61.516 C 33.076 61.799,32.800 62.564,32.800 63.216 C 32.800 64.013,32.600 64.400,32.187 64.400 C 31.851 64.400,31.456 64.709,31.311 65.087 C 31.167 65.464,30.272 66.549,29.324 67.497 C 28.376 68.445,27.600 69.577,27.600 70.011 C 27.600 70.445,26.892 71.488,26.026 72.329 C 25.160 73.169,24.321 74.384,24.161 75.028 C 24.001 75.673,23.540 76.435,23.135 76.723 C 22.670 77.053,22.400 77.741,22.400 78.596 C 22.400 79.583,22.190 80.013,21.620 80.194 C 21.192 80.330,20.735 80.775,20.605 81.184 C 20.476 81.592,20.110 82.026,19.792 82.148 C 19.474 82.270,19.097 83.106,18.953 84.007 C 18.782 85.072,18.518 85.577,18.195 85.453 C 17.635 85.239,16.800 86.808,16.800 88.075 C 16.800 88.535,16.533 89.112,16.208 89.356 C 15.882 89.600,15.567 90.250,15.508 90.800 C 15.448 91.350,14.995 92.128,14.500 92.529 C 13.767 93.123,13.600 93.660,13.600 95.429 C 13.600 97.326,13.500 97.600,12.808 97.600 C 11.967 97.600,11.298 99.188,11.799 99.998 C 11.949 100.242,11.606 100.873,11.036 101.401 C 10.185 102.190,10.000 102.722,10.000 104.381 C 10.000 105.887,9.851 106.400,9.414 106.400 C 8.524 106.400,8.000 107.725,8.000 109.974 C 8.000 111.508,7.854 112.000,7.400 112.000 C 6.860 112.000,6.565 114.459,6.693 117.900 C 6.703 118.175,6.564 118.400,6.384 118.400 C 5.675 118.400,4.800 119.716,4.800 120.782 C 4.800 121.540,4.559 121.970,4.060 122.100 C 2.843 122.419,2.588 125.374,3.425 129.477 C 3.559 130.133,3.326 130.488,2.502 130.884 L 1.400 131.413 1.343 137.207 C 1.292 142.262,1.203 142.993,0.643 142.944 C 0.060 142.894,0.000 144.791,0.000 163.200 C 0.000 181.859,0.054 183.507,0.662 183.456 C 1.247 183.406,1.316 183.937,1.252 188.000 C 1.177 192.825,1.266 193.199,2.667 193.936 C 3.422 194.334,3.479 194.537,3.109 195.516 C 2.502 197.124,3.050 200.291,4.024 200.813 C 4.678 201.163,4.800 201.667,4.800 204.017 C 4.800 206.493,4.912 206.903,5.800 207.675 C 6.634 208.400,6.800 208.900,6.800 210.685 C 6.800 212.218,6.970 212.890,7.400 213.055 C 7.819 213.216,8.000 213.869,8.000 215.214 C 8.000 216.794,8.180 217.284,9.000 217.929 C 9.781 218.543,10.000 219.080,10.000 220.384 C 10.000 222.217,10.625 223.755,11.220 223.388 C 11.442 223.250,11.600 224.062,11.600 225.344 C 11.600 228.049,11.870 228.800,12.843 228.800 C 13.435 228.800,13.600 229.092,13.600 230.138 C 13.600 230.964,13.903 231.751,14.392 232.193 C 14.828 232.587,15.298 233.515,15.437 234.255 C 15.575 234.995,15.920 235.600,16.202 235.600 C 16.834 235.600,17.253 236.597,16.950 237.385 C 16.823 237.717,17.174 238.384,17.763 238.931 C 18.333 239.459,18.800 240.276,18.800 240.746 C 18.800 241.216,19.204 242.004,19.698 242.498 C 20.192 242.992,20.538 243.646,20.468 243.952 C 20.205 245.096,20.812 246.400,21.608 246.400 C 22.209 246.400,22.400 246.670,22.400 247.520 C 22.400 248.315,22.920 249.158,24.188 250.420 C 25.366 251.592,25.905 252.434,25.767 252.884 C 25.637 253.304,25.950 253.909,26.578 254.456 C 27.140 254.944,27.600 255.659,27.600 256.044 C 27.600 256.466,27.958 256.795,28.500 256.872 C 29.245 256.978,29.379 257.213,29.276 258.238 C 29.180 259.203,29.379 259.625,30.176 260.148 C 30.762 260.531,31.203 261.200,31.206 261.709 C 31.212 262.458,36.820 268.800,37.476 268.800 C 37.644 268.800,38.608 269.786,41.441 272.855 C 42.124 273.595,44.059 275.524,45.741 277.141 C 47.424 278.759,48.811 280.199,48.824 280.341 C 48.838 280.484,49.637 281.230,50.600 282.000 C 51.563 282.770,52.362 283.619,52.376 283.886 C 52.389 284.153,52.757 284.563,53.193 284.796 C 53.629 285.030,55.458 286.746,57.256 288.610 C 59.226 290.652,60.846 292.000,61.330 292.000 C 62.189 292.000,62.620 292.343,65.481 295.300 C 66.645 296.503,67.663 297.200,68.257 297.200 C 68.878 297.200,70.159 298.144,72.056 300.000 C 73.959 301.863,75.233 302.800,75.859 302.800 C 76.429 302.800,76.800 303.037,76.800 303.400 C 76.800 303.822,77.227 304.000,78.242 304.000 C 79.305 304.000,79.892 304.264,80.471 305.000 C 80.950 305.608,81.665 306.000,82.298 306.000 C 83.007 306.000,83.884 306.571,85.062 307.800 C 86.125 308.909,87.139 309.600,87.704 309.600 C 88.209 309.600,88.930 309.960,89.307 310.400 C 89.684 310.840,90.416 311.200,90.934 311.200 C 91.452 311.200,92.202 311.560,92.600 312.000 C 93.138 312.595,93.832 312.800,95.304 312.800 C 96.959 312.800,97.419 312.971,98.100 313.836 C 98.691 314.588,99.180 314.821,99.886 314.686 C 100.633 314.543,100.941 314.720,101.219 315.450 C 101.538 316.288,101.834 316.400,103.741 316.400 C 105.516 316.400,106.006 316.555,106.480 317.269 C 106.942 317.966,107.553 318.175,109.552 318.319 C 111.457 318.457,111.997 318.630,111.836 319.050 C 111.680 319.458,112.021 319.600,113.153 319.600 C 115.070 319.600,117.068 320.279,117.355 321.028 C 117.521 321.458,118.371 321.600,120.787 321.600 C 123.660 321.600,124.000 321.679,124.000 322.349 C 124.000 323.320,126.288 323.716,129.816 323.354 C 132.102 323.120,132.414 323.174,132.663 323.846 C 132.816 324.261,133.135 324.732,133.371 324.894 C 134.083 325.382,143.829 325.269,143.338 324.778 C 142.935 324.375,136.761 323.263,133.399 322.988 C 132.518 322.916,130.988 322.593,129.999 322.270 C 128.395 321.747,125.696 321.111,124.600 320.999 C 124.380 320.976,122.850 320.553,121.200 320.059 C 113.921 317.879,111.315 317.055,110.086 316.545 C 109.364 316.245,108.507 316.000,108.181 316.000 C 107.855 316.000,107.277 315.823,106.895 315.607 C 106.513 315.391,104.490 314.560,102.400 313.762 C 98.876 312.415,90.579 308.512,87.800 306.893 C 87.140 306.509,85.340 305.493,83.800 304.637 C 77.968 301.393,64.215 291.696,60.000 287.856 C 59.230 287.155,56.982 285.235,55.004 283.591 C 46.635 276.630,36.930 265.837,30.196 256.000 C 21.659 243.529,13.737 227.132,9.035 212.200 C 8.412 210.220,7.759 208.240,7.585 207.800 C 7.411 207.360,7.063 206.190,6.813 205.200 C 6.562 204.210,5.944 201.762,5.438 199.759 C 4.933 197.756,4.419 195.954,4.295 195.753 C 4.096 195.431,3.361 191.006,1.978 181.800 C 0.668 173.082,0.594 155.283,1.827 145.400 C 2.608 139.135,3.992 130.467,4.413 129.200 C 4.596 128.650,5.049 126.760,5.420 125.000 C 5.790 123.240,6.242 121.440,6.423 121.000 C 6.605 120.560,6.877 119.576,7.028 118.813 C 7.178 118.050,7.441 117.150,7.612 116.813 C 7.782 116.476,8.138 115.390,8.403 114.400 C 8.997 112.176,12.217 103.241,13.304 100.800 C 19.589 86.688,23.816 79.287,31.582 68.800 C 33.455 66.270,35.290 63.840,35.660 63.400 C 36.029 62.960,37.447 61.250,38.810 59.600 C 48.414 47.975,64.335 33.235,72.729 28.197 C 73.098 27.976,74.660 26.969,76.200 25.961 C 80.508 23.140,86.441 19.811,91.200 17.545 C 92.630 16.864,94.520 15.958,95.400 15.532 C 96.852 14.829,98.109 14.304,105.200 11.441 C 106.410 10.952,108.750 10.131,110.400 9.616 C 112.050 9.101,113.760 8.536,114.200 8.361 C 114.640 8.186,116.890 7.477,119.200 6.787 C 121.510 6.096,124.480 5.200,125.800 4.795 C 140.635 0.245,138.770 0.308,252.000 0.521 C 340.979 0.688,347.854 0.774,353.200 1.786 C 354.505 2.034,354.600 1.982,354.600 1.026 L 354.600 0.000 245.313 0.000 C 148.332 0.000,136.051 0.068,136.255 0.600 M355.200 1.800 C 355.200 2.150,355.564 2.400,356.074 2.400 C 357.283 2.400,362.430 3.838,365.800 5.117 C 393.122 15.487,406.794 49.476,394.452 76.345 C 388.512 89.277,372.045 105.928,365.119 106.006 C 364.596 106.012,361.685 106.932,360.200 107.560 C 359.030 108.055,352.812 109.204,351.313 109.202 C 350.332 109.200,350.080 109.343,350.255 109.800 C 350.634 110.787,358.967 110.665,359.677 109.662 C 360.074 109.101,360.962 108.855,363.373 108.638 C 365.590 108.439,366.689 108.158,367.021 107.704 C 367.282 107.347,368.014 106.991,368.648 106.913 C 369.282 106.835,370.047 106.418,370.349 105.986 C 370.651 105.554,371.326 105.200,371.849 105.200 C 372.372 105.200,373.202 104.798,373.694 104.306 C 374.186 103.814,374.897 103.463,375.275 103.527 C 376.132 103.673,390.054 89.749,389.968 88.833 C 389.847 87.551,390.013 87.119,390.550 87.326 C 391.142 87.552,392.000 86.074,392.000 84.828 C 392.000 84.424,392.720 83.374,393.600 82.494 C 394.614 81.480,395.200 80.528,395.200 79.894 C 395.200 79.249,395.469 78.823,395.957 78.695 C 396.757 78.486,397.516 75.635,396.996 74.794 C 396.848 74.555,397.194 73.927,397.764 73.399 C 398.702 72.529,398.800 72.154,398.800 69.419 C 398.800 67.002,398.920 66.400,399.400 66.400 C 400.393 66.400,400.294 43.715,399.300 43.524 C 398.700 43.408,398.619 43.008,398.734 40.733 C 398.871 38.036,398.370 36.329,397.494 36.504 C 397.196 36.563,397.003 36.067,396.986 35.200 C 396.918 31.580,396.824 31.200,396.000 31.200 C 395.408 31.200,395.200 30.933,395.200 30.174 C 395.200 28.832,394.523 27.600,393.786 27.600 C 393.385 27.600,393.200 27.165,393.200 26.220 C 393.200 25.363,392.954 24.702,392.551 24.477 C 392.194 24.277,391.854 23.673,391.795 23.135 C 391.690 22.182,385.547 15.600,384.761 15.600 C 384.563 15.600,384.400 15.411,384.400 15.179 C 384.400 14.336,377.509 8.000,376.593 8.000 C 376.101 8.000,375.474 7.730,375.200 7.400 C 374.926 7.070,374.184 6.800,373.551 6.800 C 372.690 6.800,372.400 6.610,372.400 6.047 C 372.400 5.316,371.403 4.817,369.918 4.805 C 369.543 4.802,368.786 4.350,368.236 3.800 C 367.431 2.995,366.839 2.800,365.195 2.800 C 364.007 2.800,363.251 2.641,363.388 2.420 C 363.849 1.674,361.999 1.200,358.626 1.200 C 355.847 1.200,355.200 1.313,355.200 1.800 M253.600 110.433 C 167.753 110.722,157.464 110.850,156.977 111.637 C 156.731 112.035,158.947 112.042,271.536 112.019 C 312.971 112.010,347.036 111.902,347.236 111.778 C 348.651 110.903,347.526 110.002,345.100 110.067 C 343.725 110.104,302.550 110.269,253.600 110.433 M152.600 112.252 C 151.500 112.565,149.880 113.017,149.000 113.256 C 147.156 113.757,146.953 113.837,142.400 115.839 C 128.035 122.154,118.915 132.703,114.249 148.400 C 112.534 154.170,111.954 170.388,113.283 175.400 C 115.104 182.262,119.511 190.996,123.560 195.767 C 132.745 206.587,141.223 211.938,152.063 213.757 C 156.737 214.541,157.680 214.498,157.158 213.522 C 156.655 212.581,155.378 212.297,152.405 212.463 C 150.281 212.582,149.981 212.512,150.132 211.935 C 150.338 211.153,149.374 210.813,146.927 210.805 C 145.608 210.801,145.200 210.631,145.000 210.000 C 144.805 209.384,144.395 209.200,143.220 209.200 C 142.037 209.200,141.647 209.022,141.487 208.411 C 141.341 207.851,140.805 207.546,139.640 207.360 C 138.644 207.201,138.000 206.882,138.000 206.549 C 138.000 206.247,137.798 206.000,137.551 206.000 C 136.533 206.000,120.800 189.675,120.800 188.619 C 120.800 188.054,120.440 187.284,120.000 186.907 C 119.500 186.479,119.200 185.727,119.200 184.903 C 119.200 183.883,118.973 183.479,118.200 183.127 C 117.446 182.784,117.200 182.366,117.200 181.432 C 117.200 180.626,116.920 180.018,116.400 179.693 C 115.778 179.304,115.600 178.760,115.600 177.245 C 115.600 175.729,115.419 175.176,114.782 174.749 C 113.995 174.221,113.965 173.826,113.965 164.200 C 113.965 154.574,113.995 154.179,114.782 153.651 C 115.439 153.210,115.600 152.672,115.600 150.914 C 115.600 149.062,115.723 148.693,116.400 148.516 C 117.154 148.319,117.429 146.965,117.303 144.073 C 117.290 143.783,117.712 143.350,118.240 143.109 C 118.971 142.776,119.200 142.357,119.200 141.350 C 119.200 140.438,119.448 139.896,120.000 139.600 C 120.524 139.320,120.800 138.762,120.800 137.986 C 120.800 136.834,136.522 120.400,137.624 120.400 C 137.831 120.400,138.000 120.130,138.000 119.800 C 138.000 119.382,138.421 119.200,139.391 119.200 C 140.433 119.200,140.946 118.949,141.437 118.200 C 142.001 117.340,142.391 117.200,144.232 117.200 C 145.962 117.200,146.454 117.047,146.800 116.400 C 147.065 115.905,147.642 115.598,148.314 115.594 C 149.511 115.587,150.490 115.107,150.430 114.555 C 150.408 114.360,151.368 114.146,152.562 114.081 C 154.841 113.956,155.783 113.341,155.364 112.251 C 155.078 111.505,155.225 111.505,152.600 112.252 M255.800 214.392 C 175.036 214.574,167.556 214.638,196.400 214.902 C 214.550 215.068,255.668 215.388,287.774 215.613 C 353.595 216.075,350.991 215.944,361.600 219.309 C 377.893 224.475,390.851 237.375,396.407 253.958 C 397.063 255.916,397.600 257.956,397.600 258.492 C 397.600 259.028,397.725 259.592,397.878 259.745 C 398.538 260.404,399.335 271.153,399.019 275.123 C 397.754 291.020,392.562 300.069,373.337 319.884 C 365.362 328.103,102.793 590.836,99.991 593.400 C 95.521 597.491,93.946 598.735,89.400 601.768 C 81.676 606.920,73.965 610.103,64.600 612.003 C 63.280 612.271,62.020 612.546,61.800 612.613 C 61.580 612.681,63.695 612.751,66.500 612.768 C 70.781 612.795,71.600 612.704,71.600 612.200 C 71.600 611.757,72.064 611.600,73.374 611.600 C 75.580 611.600,77.200 611.012,77.200 610.210 C 77.200 609.777,77.616 609.600,78.637 609.600 C 79.738 609.600,80.124 609.413,80.284 608.800 C 80.460 608.127,80.830 608.000,82.618 608.000 C 84.407 608.000,84.866 607.842,85.529 607.000 C 85.961 606.450,86.680 606.000,87.127 606.000 C 87.917 606.000,90.278 604.324,90.920 603.307 C 91.096 603.028,91.654 602.800,92.160 602.800 C 93.059 602.800,98.000 598.369,98.000 597.563 C 98.000 597.364,98.158 597.200,98.352 597.200 C 98.545 597.200,100.480 595.385,102.652 593.167 C 104.823 590.949,107.104 588.654,107.720 588.067 C 108.336 587.480,110.586 585.223,112.720 583.050 C 114.854 580.878,116.834 578.898,117.120 578.650 C 118.824 577.173,122.400 573.450,122.400 573.153 C 122.400 572.959,122.558 572.800,122.752 572.800 C 122.945 572.800,124.880 570.985,127.052 568.767 C 129.223 566.549,131.504 564.254,132.120 563.667 C 134.771 561.140,138.324 557.579,139.891 555.876 C 140.821 554.865,141.946 553.843,142.391 553.605 C 142.836 553.367,143.200 552.908,143.200 552.586 C 143.200 552.264,143.364 552.000,143.564 552.000 C 143.764 552.000,146.509 549.377,149.664 546.172 C 152.819 542.967,155.902 539.862,156.514 539.272 C 160.076 535.847,163.176 532.728,164.419 531.321 C 165.200 530.437,166.235 529.502,166.719 529.243 C 167.204 528.984,167.600 528.508,167.600 528.186 C 167.600 527.864,167.775 527.600,167.989 527.600 C 168.202 527.600,170.137 525.780,172.289 523.555 C 174.440 521.330,176.438 519.305,176.729 519.055 C 177.019 518.805,177.559 518.286,177.929 517.902 C 178.298 517.518,179.386 516.438,180.348 515.502 C 186.065 509.934,192.000 503.844,192.000 503.546 C 192.000 503.356,192.172 503.200,192.383 503.200 C 192.719 503.200,197.411 498.644,200.467 495.350 C 201.054 494.717,203.349 492.433,205.567 490.273 C 207.785 488.113,209.600 486.178,209.600 485.973 C 209.600 485.768,209.755 485.600,209.945 485.600 C 210.409 485.600,216.400 479.627,216.400 479.165 C 216.400 478.964,216.571 478.800,216.781 478.800 C 217.086 478.800,219.785 476.167,225.500 470.292 C 225.665 470.123,227.600 468.187,229.800 465.991 C 232.000 463.795,233.980 461.816,234.200 461.592 C 234.420 461.369,237.930 457.863,242.000 453.800 C 246.070 449.737,249.627 446.185,249.905 445.907 C 252.285 443.517,258.455 437.339,258.696 437.105 C 264.772 431.195,267.200 428.708,267.200 428.392 C 267.200 428.176,267.375 428.000,267.590 428.000 C 267.804 428.000,271.314 424.625,275.391 420.500 C 279.467 416.375,282.937 412.877,283.101 412.726 C 290.148 406.266,390.000 305.929,390.000 305.308 C 390.000 304.843,390.720 303.736,391.600 302.847 C 392.582 301.855,393.200 300.857,393.200 300.262 C 393.200 299.669,393.589 299.037,394.200 298.637 C 394.949 298.146,395.200 297.633,395.200 296.591 C 395.200 295.467,395.353 295.200,396.000 295.200 C 396.621 295.200,396.817 294.908,396.875 293.900 C 396.970 292.261,397.077 290.752,397.146 290.076 C 397.176 289.788,397.371 289.658,397.580 289.788 C 398.319 290.245,398.868 288.298,398.742 285.662 C 398.631 283.338,398.703 283.007,399.307 283.056 C 399.950 283.107,400.000 282.270,400.000 271.568 C 400.000 261.811,399.913 260.059,399.437 260.241 C 398.980 260.416,398.849 259.656,398.737 256.196 C 398.627 252.788,398.466 251.837,397.933 251.447 C 397.566 251.179,397.143 250.300,396.991 249.494 C 396.817 248.563,396.439 247.939,395.958 247.787 C 395.407 247.612,395.200 247.169,395.200 246.164 C 395.200 245.079,394.986 244.685,394.200 244.327 C 393.495 244.006,393.200 243.555,393.200 242.798 C 393.200 242.207,392.837 241.396,392.394 240.995 C 391.884 240.533,391.676 239.990,391.827 239.514 C 392.056 238.794,387.285 233.600,386.395 233.600 C 386.215 233.600,386.007 233.422,385.933 233.204 C 385.599 232.211,376.191 223.123,375.411 223.040 C 374.936 222.989,374.155 222.555,373.674 222.074 C 373.193 221.593,372.390 221.200,371.889 221.200 C 371.388 221.200,370.670 220.840,370.293 220.400 C 369.881 219.919,369.113 219.600,368.366 219.600 C 367.462 219.600,367.068 219.383,366.916 218.800 C 366.737 218.117,366.370 218.000,364.402 218.000 C 362.457 218.000,362.004 217.860,361.498 217.100 C 360.945 216.269,360.599 216.200,356.996 216.200 C 353.315 216.200,353.075 216.149,352.760 215.300 C 352.507 214.619,352.106 214.399,351.113 214.395 C 350.391 214.392,349.440 214.343,349.000 214.287 C 348.560 214.230,306.620 214.278,255.800 214.392 M145.109 325.505 C 144.676 327.159,145.428 327.199,176.719 327.212 C 195.225 327.220,206.359 327.365,205.967 327.594 C 204.988 328.167,194.000 339.222,194.000 339.635 C 194.000 339.836,193.855 340.000,193.678 340.000 C 193.397 340.000,172.800 360.344,169.938 363.448 C 169.354 364.082,163.864 369.570,157.738 375.645 C 151.612 381.720,146.124 387.210,145.542 387.845 C 144.961 388.480,139.381 394.056,133.142 400.236 C 126.904 406.416,121.440 411.868,121.000 412.352 C 120.560 412.837,95.756 437.643,65.880 467.476 C 29.761 503.543,11.634 521.913,11.782 522.297 C 11.917 522.650,11.224 523.639,10.002 524.836 C 8.708 526.103,8.000 527.133,8.000 527.749 C 8.000 528.273,7.730 528.926,7.400 529.200 C 7.070 529.474,6.800 530.233,6.800 530.886 C 6.800 531.741,6.574 532.134,5.996 532.285 C 5.140 532.509,4.562 534.002,4.944 534.999 C 5.111 535.434,4.901 535.600,4.187 535.600 C 3.319 535.600,3.200 535.775,3.200 537.054 C 3.200 538.091,2.913 538.774,2.200 539.435 C 1.246 540.319,1.200 540.569,1.209 544.881 C 1.219 549.766,1.612 549.796,2.765 545.000 C 3.272 542.889,5.932 535.940,6.363 535.600 C 6.502 535.490,6.831 534.950,7.094 534.400 C 10.506 527.256,17.603 518.721,30.055 506.788 C 34.975 502.073,59.610 477.665,84.800 452.550 C 109.990 427.434,148.392 389.184,170.138 367.549 C 205.804 332.066,210.800 326.921,210.800 325.679 C 210.800 325.469,199.048 325.336,182.500 325.360 C 166.935 325.382,152.202 325.241,149.761 325.047 C 145.487 324.707,145.313 324.724,145.109 325.505 M394.681 443.094 C 393.544 443.366,232.000 605.065,232.000 605.933 C 232.000 606.345,231.550 607.169,231.000 607.762 C 229.844 609.010,229.769 609.548,230.600 610.624 C 231.175 611.367,231.219 611.369,231.634 610.676 C 233.821 607.018,250.538 589.986,321.660 518.950 C 392.762 447.935,397.094 443.734,398.140 444.780 C 398.971 445.611,399.035 561.329,398.207 567.400 C 394.559 594.180,377.591 611.267,353.400 612.524 C 352.080 612.593,354.195 612.683,358.100 612.724 C 364.178 612.789,365.200 612.714,365.200 612.200 C 365.200 611.746,365.691 611.600,367.219 611.600 C 368.859 611.600,369.412 611.412,370.165 610.600 C 370.765 609.952,371.524 609.600,372.319 609.600 C 373.195 609.600,373.619 609.371,373.800 608.800 C 373.976 608.246,374.405 608.000,375.198 608.000 C 375.942 608.000,376.617 607.650,377.129 607.000 C 377.583 606.422,378.327 606.000,378.890 606.000 C 379.784 606.000,385.537 600.768,385.933 599.595 C 386.007 599.378,386.210 599.200,386.385 599.200 C 387.273 599.200,392.031 593.927,391.800 593.199 C 391.635 592.682,391.823 592.268,392.378 591.921 C 392.882 591.606,393.200 590.984,393.200 590.313 C 393.200 589.587,393.537 588.998,394.200 588.563 C 394.896 588.107,395.200 587.546,395.200 586.718 C 395.200 585.971,395.531 585.260,396.089 584.809 C 396.760 584.265,396.995 583.614,397.051 582.145 C 397.151 579.513,397.127 579.600,397.773 579.600 C 398.669 579.600,398.885 578.272,398.739 573.673 C 398.618 569.872,398.679 569.396,399.302 569.276 C 399.963 569.149,400.000 565.773,400.000 506.202 L 400.000 443.264 398.900 443.060 C 397.645 442.827,395.737 442.843,394.681 443.094 M1.200 568.324 C 1.200 572.667,1.287 573.287,2.000 574.000 C 2.440 574.440,2.802 575.205,2.804 575.700 C 2.815 577.937,3.308 579.457,4.140 579.822 C 4.764 580.097,4.966 580.489,4.877 581.253 C 4.791 581.999,5.054 582.542,5.777 583.111 C 6.449 583.639,6.800 584.308,6.800 585.061 C 6.800 585.784,7.103 586.397,7.622 586.721 C 8.183 587.071,8.365 587.480,8.197 588.010 C 8.030 588.536,8.281 589.118,8.975 589.812 C 9.539 590.375,10.000 591.189,10.000 591.621 C 10.000 592.389,14.514 597.200,15.235 597.200 C 15.436 597.200,15.600 597.389,15.600 597.621 C 15.600 598.464,22.491 604.800,23.407 604.800 C 23.899 604.800,24.526 605.070,24.800 605.400 C 25.074 605.730,25.816 606.000,26.449 606.000 C 27.333 606.000,27.600 606.185,27.600 606.800 C 27.600 607.307,27.867 607.600,28.328 607.600 C 28.728 607.600,29.426 608.026,29.879 608.547 C 30.420 609.168,31.349 609.592,32.580 609.776 C 33.613 609.931,34.805 610.405,35.229 610.829 C 35.653 611.253,36.456 611.600,37.013 611.600 C 37.569 611.600,38.129 611.870,38.255 612.200 C 38.445 612.695,39.409 612.792,43.743 612.754 C 46.634 612.728,48.640 612.629,48.200 612.533 C 34.327 609.514,24.011 603.991,15.470 595.009 C 12.845 592.249,6.800 582.416,6.800 580.907 C 6.800 580.665,6.665 580.407,6.500 580.333 C 5.688 579.972,2.433 568.923,2.395 566.400 C 2.384 565.630,2.110 564.651,1.787 564.224 C 1.261 563.527,1.200 563.950,1.200 568.324 M232.000 612.500 C 232.000 612.665,256.975 612.757,287.500 612.704 C 318.025 612.651,334.000 612.561,323.000 612.504 C 270.065 612.230,232.000 612.229,232.000 612.500 " stroke="none" fill="#ffffff" fill-rule="evenodd"></path><path id="path4" d="M148.000 0.821 C 140.751 1.247,132.600 2.705,125.800 4.794 C 124.480 5.200,121.510 6.096,119.200 6.787 C 116.890 7.477,114.640 8.186,114.200 8.361 C 113.760 8.536,112.050 9.101,110.400 9.616 C 108.750 10.131,106.410 10.952,105.200 11.441 C 98.109 14.304,96.852 14.829,95.400 15.532 C 94.520 15.958,92.630 16.864,91.200 17.545 C 86.441 19.811,80.508 23.140,76.200 25.961 C 74.660 26.969,73.098 27.976,72.729 28.197 C 64.335 33.235,48.414 47.975,38.810 59.600 C 37.447 61.250,36.029 62.960,35.660 63.400 C 31.693 68.124,23.974 79.488,21.122 84.800 C 17.742 91.094,16.433 93.774,13.304 100.800 C 12.217 103.241,8.997 112.176,8.403 114.400 C 8.138 115.390,7.782 116.476,7.612 116.813 C 7.441 117.150,7.178 118.050,7.028 118.813 C 6.877 119.576,6.603 120.560,6.420 121.000 C 5.468 123.287,2.824 136.682,2.592 140.400 C 2.402 143.426,2.822 142.041,3.621 137.000 C 4.426 131.925,4.748 130.230,5.405 127.600 C 6.724 122.327,6.853 121.776,7.052 120.600 C 7.163 119.940,7.412 119.040,7.604 118.600 C 7.797 118.160,8.509 116.000,9.188 113.800 C 10.291 110.224,12.111 105.164,13.936 100.600 C 20.928 83.112,34.723 63.469,52.818 45.232 C 62.563 35.412,76.401 25.573,90.000 18.796 C 92.310 17.645,94.830 16.380,95.600 15.984 C 97.737 14.886,103.976 12.450,109.000 10.753 C 110.320 10.308,111.760 9.797,112.200 9.618 C 114.408 8.723,126.559 5.132,131.200 4.004 C 131.970 3.817,133.320 3.477,134.200 3.250 C 141.643 1.326,137.183 1.400,245.600 1.400 C 352.769 1.400,349.215 1.341,357.200 3.258 C 359.070 3.707,361.050 4.161,361.600 4.267 C 362.150 4.373,362.960 4.607,363.400 4.787 C 363.840 4.967,365.190 5.501,366.400 5.974 C 374.581 9.169,382.391 15.113,387.171 21.783 C 390.588 26.550,395.600 36.130,395.600 37.894 C 395.600 38.178,395.763 38.723,395.963 39.105 C 397.927 42.870,399.131 57.121,397.970 62.869 C 397.410 65.641,396.398 69.586,395.988 70.600 C 395.810 71.040,395.195 72.675,394.623 74.233 C 391.394 83.017,379.187 98.391,372.400 102.222 C 370.739 103.159,366.258 105.089,364.578 105.590 C 357.487 107.706,355.479 108.129,347.200 109.256 C 345.286 109.516,310.539 109.770,251.200 109.956 C 183.596 110.168,157.818 110.372,156.800 110.702 C 156.030 110.952,154.050 111.450,152.400 111.809 C 141.055 114.277,128.914 121.758,122.640 130.148 C 120.760 132.661,116.800 139.200,116.800 139.790 C 116.800 139.911,116.450 140.772,116.021 141.704 C 114.885 144.178,113.504 148.716,113.710 149.298 C 113.808 149.574,114.111 148.990,114.384 148.000 C 118.430 133.326,128.242 122.063,142.400 115.839 C 146.961 113.833,147.159 113.756,149.000 113.260 C 149.880 113.023,151.584 112.561,152.788 112.233 C 154.067 111.884,155.070 111.789,155.203 112.005 C 155.330 112.210,155.954 112.081,156.615 111.711 C 158.106 110.878,191.726 110.533,285.000 110.392 C 346.787 110.299,350.602 110.250,350.173 109.557 C 350.052 109.360,350.548 109.201,351.276 109.202 C 352.804 109.204,359.017 108.061,360.200 107.560 C 361.685 106.932,364.596 106.012,365.119 106.006 C 372.045 105.928,388.512 89.277,394.452 76.345 C 406.794 49.476,393.122 15.487,365.800 5.117 C 362.601 3.903,357.301 2.400,356.219 2.400 C 355.817 2.400,355.230 2.085,354.914 1.700 C 354.599 1.315,354.470 1.250,354.628 1.555 C 354.861 2.005,354.620 2.055,353.358 1.816 C 352.501 1.654,350.450 1.335,348.800 1.109 C 345.173 0.610,156.220 0.340,148.000 0.821 M1.662 146.864 C 0.586 155.892,0.746 173.601,1.978 181.800 C 3.361 191.006,4.096 195.431,4.295 195.753 C 4.419 195.954,4.933 197.756,5.438 199.759 C 5.944 201.762,6.562 204.210,6.813 205.200 C 7.063 206.190,7.411 207.360,7.585 207.800 C 7.759 208.240,8.412 210.220,9.035 212.200 C 13.737 227.132,21.659 243.529,30.196 256.000 C 36.930 265.837,46.635 276.630,55.004 283.591 C 56.982 285.235,59.230 287.155,60.000 287.856 C 64.215 291.696,77.968 301.393,83.800 304.637 C 85.340 305.493,87.140 306.509,87.800 306.893 C 90.579 308.512,98.876 312.415,102.400 313.762 C 104.490 314.560,106.513 315.391,106.895 315.607 C 107.277 315.823,107.855 316.000,108.181 316.000 C 108.507 316.000,109.364 316.245,110.086 316.545 C 111.315 317.055,113.921 317.879,121.200 320.059 C 122.850 320.553,124.380 320.976,124.600 320.999 C 125.696 321.111,128.395 321.747,129.999 322.270 C 130.988 322.593,132.518 322.916,133.399 322.988 C 135.718 323.178,142.715 324.300,143.114 324.547 C 144.058 325.130,156.931 325.396,182.500 325.360 C 199.048 325.336,210.800 325.469,210.800 325.679 C 210.800 326.921,205.804 332.066,170.138 367.549 C 148.392 389.184,109.990 427.434,84.800 452.550 C 59.610 477.665,34.975 502.073,30.055 506.788 C 17.603 518.721,10.506 527.256,7.094 534.400 C 6.831 534.950,6.502 535.490,6.363 535.600 C 5.924 535.947,3.266 542.910,2.775 545.000 C 2.517 546.100,2.147 547.313,1.953 547.695 C 1.507 548.571,1.502 552.426,1.945 553.125 C 2.145 553.440,2.370 552.233,2.507 550.114 C 2.633 548.168,2.912 546.132,3.127 545.588 C 3.341 545.045,3.750 543.790,4.036 542.800 C 7.012 532.474,14.335 522.782,32.639 504.942 C 69.984 468.545,209.860 328.855,210.873 326.945 C 212.268 324.315,213.324 324.407,187.200 324.892 C 165.984 325.287,162.394 325.262,154.138 324.663 C 143.360 323.881,135.580 322.865,129.400 321.432 C 127.860 321.075,125.880 320.625,125.000 320.433 C 123.189 320.036,117.811 318.476,116.600 317.997 C 116.160 317.823,114.720 317.372,113.400 316.996 C 75.793 306.285,37.105 273.084,19.483 236.400 C 16.322 229.820,14.400 225.639,14.400 225.342 C 14.400 225.221,14.147 224.554,13.839 223.860 C 12.528 220.918,8.508 209.186,7.376 205.000 C 4.696 195.093,4.691 195.074,3.628 188.800 C 1.672 177.267,0.992 158.867,2.137 148.490 C 2.410 146.009,2.516 143.787,2.371 143.553 C 2.226 143.319,1.907 144.809,1.662 146.864 M112.865 152.069 C 110.833 162.729,111.228 172.408,113.981 179.400 C 114.154 179.840,114.781 181.460,115.373 183.000 C 120.132 195.371,133.370 208.645,144.800 212.508 C 154.288 215.714,148.927 215.535,249.263 215.992 C 340.660 216.409,347.226 216.537,354.400 218.048 C 356.490 218.488,358.650 218.940,359.200 219.054 C 359.750 219.167,360.560 219.408,361.000 219.588 C 361.440 219.768,362.700 220.231,363.800 220.617 C 379.732 226.204,393.028 241.204,396.937 258.000 C 399.264 267.995,398.872 279.628,395.958 287.119 C 395.761 287.624,395.600 288.315,395.600 288.654 C 395.600 292.494,387.389 304.560,378.487 313.800 C 369.073 323.573,100.383 592.392,97.600 594.823 C 91.925 599.779,86.302 603.535,80.600 606.178 C 79.280 606.789,77.886 607.451,77.502 607.647 C 60.914 616.137,35.054 612.139,20.400 598.820 C 19.410 597.920,17.910 596.603,17.067 595.892 C 14.162 593.443,9.459 586.029,6.860 579.800 C 4.800 574.863,4.486 573.965,3.991 571.600 C 3.738 570.390,3.366 568.748,3.165 567.951 C 2.963 567.154,2.681 564.849,2.538 562.827 C 2.382 560.630,2.143 559.363,1.945 559.676 C 1.475 560.416,1.519 564.303,2.000 564.600 C 2.220 564.736,2.404 565.512,2.408 566.324 C 2.422 568.865,5.663 579.961,6.500 580.333 C 6.665 580.407,6.800 580.665,6.800 580.907 C 6.800 582.416,12.845 592.249,15.470 595.009 C 23.182 603.120,33.091 608.778,45.000 611.872 C 48.539 612.792,60.834 612.908,64.600 612.058 C 74.840 609.746,81.721 606.891,89.400 601.768 C 93.946 598.735,95.521 597.491,99.991 593.400 C 102.793 590.836,365.362 328.103,373.337 319.884 C 392.562 300.069,397.754 291.020,399.019 275.123 C 399.335 271.153,398.538 260.404,397.878 259.745 C 397.725 259.592,397.600 259.028,397.600 258.492 C 397.600 257.956,397.063 255.916,396.407 253.958 C 390.198 235.426,375.118 221.946,355.800 217.660 C 347.860 215.899,354.880 216.018,196.693 214.963 C 175.185 214.820,157.494 214.552,157.381 214.369 C 157.267 214.185,156.930 214.129,156.631 214.243 C 154.996 214.871,144.045 212.064,139.923 209.961 C 135.906 207.911,128.181 201.210,123.560 195.767 C 119.511 190.996,115.104 182.262,113.283 175.400 C 112.461 172.299,112.370 159.407,113.134 154.067 C 113.712 150.016,113.524 148.613,112.865 152.069 " stroke="none" fill="#ffffff" fill-rule="evenodd"></path></g></svg>